<svg width="41" height="32" viewBox="0 0 41 32" fill="none" xmlns="http://www.w3.org/2000/svg">
<path fill-rule="evenodd" clip-rule="evenodd" d="M2.99895 0.05461C2.23731 0.196355 1.6114 0.538962 1.04912 1.12191C0.567564 1.62119 0.246634 2.22308 0.0790332 2.94122C0.0179803 3.20297 0.0140461 3.75626 0.00288701 13.7201C-0.00501732 20.7715 0.00328022 24.3562 0.0281377 24.6279C0.0891549 25.2945 0.290519 25.886 0.633088 26.4049C1.19029 27.2488 2.12479 27.8538 3.08293 27.9909C3.26623 28.0171 4.4987 28.0307 6.69446 28.0307H10.0277L10.1582 27.9395C10.4548 27.7322 10.4154 27.2267 10.0918 27.0876C9.99611 27.0465 9.38183 27.0374 6.68194 27.0374C3.05793 27.0374 3.11827 27.0408 2.57677 26.8096C2.30988 26.6957 1.90408 26.3999 1.68572 26.1602C1.39001 25.8356 1.13596 25.3408 1.04955 24.921C0.970184 24.5357 0.969541 3.49728 1.04887 3.10677C1.13085 2.70332 1.37942 2.22595 1.67989 1.89501C2.0554 1.48144 2.42387 1.24592 2.94473 1.08648L3.19509 1.00985L20.3986 1.00025C39.1684 0.989801 37.8538 0.975416 38.3941 1.19677C39.1595 1.51039 39.7576 2.19693 39.9787 3.01579L40.0529 3.29071L40.0522 13.9777C40.0514 25.9236 40.0748 24.9197 39.7845 25.5107C39.4122 26.2684 38.9232 26.6754 38.0314 26.9696C37.9203 27.0062 37.0428 27.0211 34.1084 27.0363L30.3284 27.0558L30.2182 27.1644C29.9993 27.3803 29.9999 27.6885 30.2197 27.9051L30.3285 28.0123H34.1442H37.9599L38.2818 27.9281C39.5582 27.5942 40.5714 26.5721 40.9176 25.2691L41 24.9589V13.996V3.0332L40.8997 2.7021C40.7171 2.0987 40.4082 1.54438 40.0217 1.12628C39.6875 0.764694 39.0665 0.366058 38.5597 0.187636C37.9862 -0.0142942 39.1712 -0.00211724 20.4923 0.001488C6.17349 0.00424711 3.22145 0.0132234 2.99895 0.05461ZM6.75383 3.23461C6.38251 3.27533 6.3109 3.37393 6.256 3.91975C6.21287 4.34899 6.14513 4.60044 5.98404 4.92944C5.70624 5.49682 5.17765 6.00236 4.62349 6.2306C4.35181 6.3425 3.91825 6.43606 3.6705 6.43624C3.4475 6.43639 3.279 6.5267 3.19685 6.69015C3.14738 6.78852 3.14144 7.57388 3.14159 14.0218C3.1417 21.1193 3.14291 21.2453 3.21155 21.3611C3.30894 21.5254 3.43408 21.5789 3.78524 21.6063C4.48529 21.6608 5.05165 21.9359 5.52991 22.4538C5.959 22.9184 6.1903 23.445 6.24949 24.0921C6.28991 24.5341 6.35021 24.6662 6.55365 24.7588C6.6994 24.8251 6.85355 24.8282 10.0799 24.829C11.9355 24.8295 13.4589 24.8351 13.4652 24.8416C13.4714 24.848 13.1214 25.9365 12.6875 27.2605C11.8013 29.9643 11.818 29.888 12.0611 30.1172C12.267 30.3112 12.343 30.2973 13.8133 29.7965C14.5261 29.5537 15.1245 29.3551 15.1431 29.3551C15.1616 29.3551 15.2975 29.5377 15.445 29.7609C15.5926 29.984 15.8742 30.4056 16.0709 30.6977C16.2677 30.9898 16.5068 31.3466 16.6024 31.4906C16.8227 31.8223 16.9411 31.9029 17.1775 31.8818C17.492 31.8539 17.5094 31.8195 18.0536 30.146C18.3168 29.3367 18.7308 28.0721 18.9736 27.3359C19.2164 26.5996 19.415 25.954 19.415 25.9012C19.4149 25.7574 19.3038 25.5598 19.1826 25.4878C19.0276 25.3958 18.8066 25.4016 18.6625 25.5015C18.5101 25.6071 18.5236 25.5707 17.6963 28.1043C17.323 29.2475 17.0092 30.2065 16.999 30.2353C16.9859 30.2723 16.955 30.2504 16.8952 30.1618C16.6862 29.852 16.005 28.8353 15.8553 28.6097C15.679 28.3439 15.5535 28.2514 15.3692 28.2514C15.3059 28.2514 14.7937 28.4087 14.2308 28.6009C13.668 28.7931 13.1968 28.9504 13.1838 28.9504C13.1359 28.9504 14.5272 24.7757 14.6095 24.6727C14.9348 24.2654 14.5971 23.7007 14.0743 23.7778C13.9922 23.7899 12.4154 23.804 10.5703 23.8091L7.21565 23.8185L7.19784 23.7265C7.03424 22.8822 6.722 22.2585 6.18372 21.7007C5.69505 21.1943 5.07132 20.8391 4.4022 20.6861L4.10713 20.6186V14.0144V7.41032L4.4022 7.3424C5.75749 7.03055 6.89618 5.86253 7.15066 4.52311C7.17566 4.3916 7.20656 4.271 7.2194 4.25515C7.24122 4.22811 33.7895 4.21284 33.8158 4.23988C33.8225 4.24676 33.8684 4.41676 33.9179 4.61766C34.192 5.73145 34.9628 6.67073 35.9706 7.11888C36.2391 7.23833 36.7493 7.39258 36.8757 7.39258C36.9381 7.39258 36.9405 7.6462 36.9404 14.0052L36.9403 20.6179L36.5917 20.7019C35.2701 21.0203 34.2415 22.0695 33.9132 23.434L33.8207 23.8185L30.4001 23.8136C28.5189 23.8109 26.8542 23.7981 26.7009 23.785C26.3881 23.7584 26.2432 23.805 26.1264 23.9697C25.9772 24.1802 25.9803 24.1928 26.7791 26.6308C27.1931 27.8944 27.5256 28.9345 27.5181 28.9422C27.5106 28.9499 27.0341 28.7958 26.4592 28.5997C25.6111 28.3103 25.3872 28.2468 25.2718 28.2627C25.1153 28.2843 24.9776 28.3993 24.8223 28.6379C24.407 29.2759 23.7312 30.2751 23.7216 30.2652C23.7151 30.2586 23.3715 29.2192 22.9579 27.9555C22.2561 25.8109 22.1977 25.6499 22.0808 25.5383C21.9775 25.4397 21.9269 25.4188 21.7923 25.4188C21.5102 25.4188 21.3574 25.5491 21.2963 25.8418C21.2784 25.9275 21.412 26.3754 21.8945 27.8468C22.2362 28.8888 22.6495 30.1552 22.8131 30.6611C22.9766 31.1669 23.1413 31.6265 23.1791 31.6825C23.2648 31.8096 23.4188 31.8935 23.5663 31.8935C23.7958 31.8935 23.9175 31.773 24.3508 31.1168C25.0199 30.1035 25.4607 29.4504 25.5111 29.3976C25.5505 29.3563 25.7769 29.4221 26.8851 29.7968C27.6148 30.0435 28.2674 30.2453 28.3353 30.2453C28.5883 30.2453 28.7858 30.0357 28.7858 29.7671C28.7858 29.6745 28.5743 28.9772 28.2128 27.8782C27.8976 26.9201 27.5454 25.8423 27.43 25.4831L27.2203 24.8301L27.9763 24.8297C32.8165 24.8269 34.4231 24.8096 34.5183 24.7594C34.6845 24.6718 34.7509 24.5145 34.7914 24.112C34.8628 23.4017 35.1017 22.8622 35.5485 22.4026C36.0177 21.9201 36.7498 21.5928 37.3598 21.5928C37.5766 21.5928 37.7559 21.496 37.8409 21.333C37.9035 21.2128 37.9062 20.9111 37.9062 14.0255C37.9062 7.55118 37.9006 6.83135 37.8496 6.72245C37.7562 6.52299 37.6459 6.46527 37.2945 6.4319C36.6871 6.37425 36.2042 6.18627 35.7888 5.84572C35.2016 5.36438 34.8677 4.72376 34.795 3.93929C34.7549 3.50666 34.7165 3.40744 34.547 3.29899L34.419 3.21714L20.6848 3.21508C13.131 3.21397 6.86203 3.22276 6.75383 3.23461ZM20.0949 6.49521C19.6741 6.61154 19.2836 6.88807 18.6103 7.5468C18.0869 8.05885 17.8897 8.21495 17.6501 8.30662C17.4066 8.39981 17.2503 8.4179 16.3392 8.45841C15.2618 8.50631 14.8883 8.61321 14.49 8.98768C14.2668 9.19748 14.1696 9.34335 14.0576 9.63666C13.93 9.97102 13.9042 10.1644 13.8539 11.1634C13.7885 12.4637 13.788 12.4651 12.9834 13.3339C12.1721 14.2099 11.9042 14.6986 11.9042 15.302C11.9042 15.9122 12.1621 16.3826 12.987 17.2772C13.2516 17.5641 13.5189 17.8778 13.5811 17.9743C13.7686 18.2656 13.8009 18.4412 13.8535 19.4591C13.9029 20.416 13.9298 20.6212 14.0495 20.9537C14.2356 21.4706 14.5975 21.8143 15.1614 22.0092C15.3706 22.0815 15.8598 22.1347 16.7147 22.1782C17.7253 22.2297 17.7989 22.2635 18.592 23.0422C18.8578 23.3033 19.1719 23.5906 19.2899 23.6808C20.0135 24.2338 20.691 24.313 21.3778 23.9252C21.6954 23.7458 21.8679 23.6046 22.3986 23.0896C23.288 22.2266 23.2804 22.2299 24.5475 22.1625C25.5121 22.1112 25.6717 22.0888 26.0206 21.9556C26.2881 21.8535 26.4832 21.7152 26.6844 21.485C27.0272 21.0929 27.1316 20.6951 27.1774 19.6062C27.238 18.1617 27.2379 18.1622 28.0466 17.2886C28.5421 16.7533 28.7319 16.5092 28.9067 16.1821C29.0856 15.8474 29.1576 15.5315 29.1305 15.201C29.0795 14.5788 28.8445 14.1793 27.9995 13.2787C27.6649 12.9221 27.4094 12.5859 27.3364 12.4063C27.249 12.1911 27.2126 11.8806 27.1776 11.0515C27.1587 10.6047 27.1191 10.1286 27.0888 9.98614C27.0053 9.59229 26.8191 9.23758 26.5727 9.00298C26.1598 8.60972 25.8008 8.50656 24.6727 8.45697C23.8457 8.42063 23.5475 8.38435 23.3392 8.29485C23.1591 8.21745 22.9055 8.00864 22.4124 7.53172C21.864 7.00127 21.68 6.84937 21.3822 6.68132C20.9616 6.44389 20.5145 6.37926 20.0949 6.49521ZM20.8905 7.54349C21.0856 7.64458 21.2768 7.80468 21.7281 8.24504C22.6576 9.15212 22.9911 9.33242 23.8938 9.41615C24.096 9.43491 24.4465 9.45139 24.6727 9.45275C25.1683 9.45581 25.5828 9.52626 25.7896 9.64266C26.0758 9.80368 26.2103 10.2577 26.211 11.0648C26.2114 11.5485 26.2717 12.2146 26.3396 12.4853C26.3704 12.6081 26.452 12.8192 26.521 12.9545C26.6523 13.2122 27.0937 13.7815 27.357 14.0328C27.8118 14.467 28.1782 15.0323 28.1774 15.2987C28.1771 15.4567 28.0422 15.7677 27.8832 15.9777C27.8198 16.0613 27.6062 16.3036 27.4085 16.516C26.7163 17.2599 26.4577 17.6473 26.3403 18.1163C26.2682 18.4045 26.2111 19.0392 26.2094 19.5694C26.2071 20.3337 26.0832 20.7771 25.8254 20.9429C25.6106 21.081 25.4158 21.1138 24.5833 21.1518C22.9878 21.2246 22.8036 21.3062 21.6247 22.4623C21.2764 22.8038 21.1025 22.9456 20.9108 23.0442C20.6094 23.1993 20.4683 23.2073 20.2109 23.0841C19.9572 22.9625 19.7843 22.8217 19.2465 22.2982C18.5556 21.6257 18.2372 21.4087 17.7519 21.2799C17.5015 21.2134 16.8315 21.1535 16.3213 21.152C15.6911 21.1501 15.3102 21.0581 15.1192 20.8617C14.9179 20.6546 14.8747 20.4517 14.836 19.5327C14.7967 18.5981 14.7826 18.4596 14.691 18.1049C14.5628 17.6091 14.3386 17.2695 13.6634 16.5487C13.2023 16.0564 13.0975 15.9204 12.9725 15.6515C12.8468 15.3811 12.844 15.2319 12.9599 14.9759C13.0773 14.7164 13.1966 14.5621 13.6884 14.0336C14.3483 13.3243 14.5803 12.9642 14.7116 12.4459C14.7724 12.2059 14.8368 11.4388 14.8369 10.9533C14.8371 10.2584 14.9576 9.84374 15.21 9.66962C15.4211 9.52394 15.6378 9.48704 16.4987 9.45011C16.9306 9.43153 17.3813 9.39893 17.5001 9.3776C18.1515 9.26076 18.5126 9.03687 19.3009 8.26104C19.8608 7.71007 20.0613 7.55651 20.3448 7.46186C20.4767 7.41782 20.7175 7.45384 20.8905 7.54349ZM19.9873 10.3213C19.7134 10.3561 19.1389 10.4939 18.8994 10.5823C18.5361 10.7164 18.0547 10.9692 17.7388 11.1917C17.376 11.4474 16.7584 12.0854 16.52 12.4509C15.3746 14.2068 15.3759 16.4322 16.5231 18.1609C16.7658 18.5265 17.3861 19.1655 17.7388 19.4131C19.4267 20.5979 21.6185 20.598 23.3088 19.4134C23.6749 19.1568 24.2869 18.5197 24.5372 18.1347C24.7966 17.7357 25.0728 17.139 25.1875 16.7298C25.3616 16.109 25.4416 15.1892 25.3508 14.8529C25.2407 14.4452 24.7483 14.336 24.5041 14.6653C24.41 14.7922 24.4056 14.8158 24.4149 15.1463C24.4344 15.8387 24.3034 16.4439 23.9949 17.0862C23.6066 17.8947 23.029 18.4913 22.2539 18.8846C20.7348 19.6553 18.9628 19.3573 17.77 18.1305C15.8918 16.1986 16.4141 12.9268 18.7935 11.7196C19.2219 11.5023 19.6383 11.3786 20.1324 11.3221C21.2132 11.1985 22.3681 11.5948 23.1351 12.3523L23.3467 12.5613L23.0069 13.0396C22.82 13.3026 22.6397 13.5592 22.6061 13.6098C22.5726 13.6604 22.2712 14.0908 21.9364 14.5663C21.6015 15.0417 21.169 15.6586 20.9752 15.9371C20.7814 16.2155 20.6125 16.45 20.5998 16.4581C20.5871 16.4661 20.1986 16.1097 19.7366 15.666C19.179 15.1306 18.858 14.8484 18.782 14.8266C18.4774 14.7396 18.1633 14.9809 18.1633 15.302C18.1633 15.5251 18.203 15.5715 19.2363 16.5554C19.4821 16.7896 19.8515 17.1412 20.0572 17.3369C20.4487 17.7096 20.548 17.7612 20.7858 17.7153C20.9373 17.686 21.0072 17.6076 21.4608 16.9575C21.6655 16.6641 22.4167 15.5917 23.13 14.5745C24.0096 13.3203 24.4333 12.6861 24.4461 12.6045C24.4727 12.4365 24.3953 12.2708 24.156 11.9827C23.7886 11.5406 23.253 11.1159 22.7044 10.8317C22.0298 10.4822 21.4574 10.3382 20.6669 10.3189C20.362 10.3115 20.0562 10.3126 19.9873 10.3213Z" fill="black"/>
</svg>
