<svg width="66" height="74" viewBox="0 0 66 74" fill="none" xmlns="http://www.w3.org/2000/svg">
<path fill-rule="evenodd" clip-rule="evenodd" d="M39.9368 5.27734C36.084 9.56617 35.7083 10.8177 36.4725 16.8065C36.944 20.5005 37.3325 25.3126 37.3368 27.4991C37.3454 31.4604 37.3854 31.4715 48.1854 30.6716C57.8397 29.9576 59.3997 29.3835 62.4668 25.4159C70.5611 14.9395 63.8568 0.465332 50.9083 0.465332C45.414 0.465332 43.5097 1.3002 39.9368 5.27734ZM61.2654 7.65632C65.6611 13.2873 65.3354 18.8403 60.2783 24.4697C56.5483 28.6218 55.2125 29.1052 48.3597 28.7872L40.6425 28.4278L38.7611 21.3338C37.1668 15.3228 37.194 13.6165 38.9368 10.1577C43.4583 1.19206 55.1925 -0.12305 61.2654 7.65632ZM15.194 15.0238C10.4654 17.9021 8.76397 21.4086 8.79683 28.2004C8.85112 39.0998 16.9268 46.8839 24.5397 43.3743C34.9654 38.5671 36.7154 20.9712 27.3068 15.555C22.474 12.7737 19.1297 12.6274 15.194 15.0238ZM29.1225 19.7913C32.8854 24.7417 32.1325 26.4241 27.5125 23.3868C23.6925 20.8742 23.1668 20.8679 20.0525 23.2962C16.874 25.7753 10.194 26.9346 10.194 25.0088C10.194 24.5143 10.8783 22.6855 11.7154 20.9442C14.9397 14.2382 24.424 13.6101 29.1225 19.7913ZM28.0711 26.2078C31.1297 27.7599 31.634 28.8285 30.884 32.1712C29.464 38.5098 25.964 41.8111 20.6654 41.8111C16.784 41.8111 15.3254 40.8236 13.0354 36.6429C9.27826 29.7827 9.3754 29.4042 15.2097 28.1861C17.9683 27.6104 20.5783 26.5036 21.0083 25.7292C22.054 23.8448 23.6211 23.9513 28.0711 26.2078ZM10.224 48.2722C4.07826 51.1489 1.88826 54.5504 0.868257 62.8068C0.129686 68.7876 0.371114 71.173 1.82111 72.1955C4.39111 74.0083 37.4811 73.9686 40.0597 72.151C43.5354 69.702 40.3783 54.7985 35.5354 50.7895C30.9968 47.0334 16.0483 45.5449 10.224 48.2722ZM16.4811 56.2503C16.404 59.3831 15.9083 63.8548 15.3825 66.1892C14.5183 70.0201 13.7825 70.4351 7.85683 70.4351C1.74254 70.4351 1.34826 70.1886 2.15111 66.8571C2.62397 64.89 3.02111 61.9942 3.03111 60.4247C3.06111 56.1056 9.72397 49.4664 13.4383 50.0532C16.0868 50.473 16.5983 51.5146 16.4811 56.2503ZM23.0511 51.3524C23.0511 52.2271 22.0868 52.9427 20.9083 52.9427C19.7297 52.9427 18.7654 52.2271 18.7654 51.3524C18.7654 50.4778 19.7297 49.7622 20.9083 49.7622C22.0868 49.7622 23.0511 50.4778 23.0511 51.3524ZM34.1068 52.1937C36.8911 54.3659 40.164 63.1153 40.1854 68.4473C40.1911 69.737 37.9883 70.4351 33.9083 70.4351H27.6211L25.904 62.4649C24.9597 58.0823 24.554 53.4309 25.0025 52.1285C26.0554 49.0768 30.1454 49.1055 34.1068 52.1937ZM23.0854 57.3158C23.104 57.9725 23.6797 61.1927 24.364 64.4718C25.6054 70.4256 25.5997 70.4351 20.9554 70.4351H16.304L17.7754 63.2791C18.614 59.2002 20.0654 56.1231 21.1483 56.1231C22.1954 56.1231 23.0668 56.659 23.0854 57.3158ZM29.8368 60.3563C30.8197 60.7984 32.4268 60.7984 33.4083 60.3563C34.3911 59.9158 33.5868 59.5548 31.6225 59.5548C29.6583 59.5548 28.8554 59.9158 29.8368 60.3563Z" fill="#2DD999"/>
</svg>
