<svg width="51" height="72" viewBox="0 0 51 72" fill="none" xmlns="http://www.w3.org/2000/svg">
<path fill-rule="evenodd" clip-rule="evenodd" d="M19.6221 3.71637C17.6605 5.39701 14.5442 6.77209 12.6977 6.77209C8.52616 6.77209 5.97387 9.41987 5.97387 13.7468C5.97387 15.5665 4.8191 18.694 3.40615 20.6985C-0.891626 26.7978 -1.03334 29.1094 2.56427 34.4172C4.43885 37.1857 5.97387 41.346 5.97387 43.6623C5.97387 46.0152 7.01218 48.5056 8.32832 49.3077C10.5326 50.6507 10.5326 51.1717 8.32832 57.4558C5.33825 65.9797 5.34808 66.0653 9.17019 65.2693C11.2202 64.843 13.3333 65.7674 15.0619 67.8483L17.7573 71.0904L20.1076 64.5237C23.5172 54.9929 27.3772 54.8676 30.6422 64.1799L33.1538 71.3395L35.7061 67.9079C37.533 65.4496 39.2743 64.6887 41.8406 65.2234C44.1333 65.7001 45.2137 65.3503 44.8391 64.2533C40.5651 51.7187 40.5301 51.4299 42.9224 48.8249C44.2091 47.4239 45.2614 44.3712 45.2614 42.0412C45.2614 39.7097 46.5242 36.5577 48.0677 35.0375C51.6414 31.5158 51.6414 26.5808 48.0677 21.6336C46.5242 19.4976 45.2614 16.1043 45.2614 14.0936C45.2614 9.43973 42.8115 6.77209 38.5376 6.77209C36.6911 6.77209 33.5748 5.39701 31.6132 3.71637C29.6502 2.03572 26.9534 0.660645 25.6176 0.660645C24.2819 0.660645 21.5851 2.03572 19.6221 3.71637ZM29.444 5.24423C31.4069 6.92487 34.6945 8.29995 36.7514 8.29995C41.5024 8.29995 43.8583 10.8652 43.8583 16.0386C43.8583 18.2784 45.1211 21.8582 46.6645 23.9957C48.208 26.1316 49.4708 28.5242 49.4708 29.3126C49.4708 30.0995 48.208 31.9894 46.6645 33.5096C45.1211 35.0299 43.8583 37.8304 43.8583 39.7326C43.8583 46.0381 42.3611 48.0243 37.6116 48.0243C34.8502 48.0243 32.072 49.2222 30.5286 51.08C27.3196 54.9409 23.9395 54.9684 20.7754 51.1625C19.4074 49.517 16.0273 47.9815 13.2084 47.7249C8.50932 47.2971 8.04488 46.8127 7.26475 41.5355C6.79891 38.3881 5.37053 34.5516 4.09087 33.0131C1.00821 29.3034 1.15553 26.1805 4.57074 22.8146C6.11418 21.2944 7.377 18.231 7.377 16.008C7.377 10.9905 9.72302 8.29995 14.1008 8.29995C15.9473 8.29995 19.0636 6.92487 21.0252 5.24423C22.9882 3.56358 24.8824 2.1885 25.2346 2.1885C25.5882 2.1885 27.4824 3.56358 29.444 5.24423ZM17.537 13.3801C6.47759 20.0691 7.19179 37.78 18.7858 44.3086C24.5948 47.5797 31.8882 46.0152 37.0531 40.3896C40.3098 36.845 41.052 34.709 41.052 28.8909C41.052 22.8009 40.3462 20.9766 36.2814 16.5504C32.4761 12.4068 30.4177 11.3664 26.1087 11.4091C23.1383 11.4397 19.2811 12.3259 17.537 13.3801ZM35.0579 18.2738C39.5647 23.1813 39.9365 24.2416 39.2139 30.1117C38.1686 38.6005 33.1622 43.4407 25.431 43.4407C10.7613 43.4407 6.29238 22.4479 19.3036 14.6574C24.7112 11.4183 29.8439 12.5963 35.0579 18.2738ZM26.7191 27.6579C23.5635 31.0941 22.6276 31.4256 20.7867 29.7633C19.5856 28.677 18.602 28.4753 18.602 29.3157C18.602 30.156 19.587 31.7343 20.7923 32.8221C22.6514 34.5043 23.7571 33.9573 28.1348 29.1904C30.9692 26.1041 32.6529 23.5786 31.877 23.5786C31.0996 23.5786 28.7789 25.4135 26.7191 27.6579ZM19.8438 53.1595C22.0635 56.0731 17.7714 67.5932 15.4197 65.0325C14.5456 64.0806 12.6948 63.3029 11.3057 63.3029C8.25816 63.3029 8.24272 63.0783 10.8133 56.3787C12.9685 50.7622 16.9379 49.3474 19.8438 53.1595ZM40.3322 56.614C43.0192 63.6192 43.0852 63.3029 38.9473 63.3029C37.018 63.3029 35.4395 63.9905 35.4395 64.8308C35.4395 68.4717 32.9714 65.8881 31.515 60.7208C28.5979 50.3726 36.5199 46.6829 40.3322 56.614Z" fill="#2DD999"/>
</svg>
