<svg width="67" height="70" viewBox="0 0 67 70" fill="none" xmlns="http://www.w3.org/2000/svg">
<path fill-rule="evenodd" clip-rule="evenodd" d="M26.0852 2.37823C23.2795 4.07181 21.6338 6.84834 20.4052 11.9641C18.7195 18.9786 18.5509 19.1424 13.9966 18.1914C9.68233 17.2897 9.31948 17.5362 9.31948 21.3655C9.31948 27.2398 6.8409 31.6701 3.55519 31.6701C1.17805 31.6701 0.748047 32.7737 0.748047 38.8754C0.748047 44.2869 1.3709 46.3383 3.24805 47.1096C4.62233 47.6741 8.21376 50.8498 11.228 54.1654C15.9566 59.3654 16.578 60.8571 15.758 65.0155C14.8395 69.6685 14.9809 69.8354 19.8238 69.8354C23.5866 69.8354 25.068 69.0403 25.748 66.655C26.4723 64.1138 27.9095 63.4746 32.8909 63.4746C37.8723 63.4746 39.3095 64.1138 40.0338 66.655C40.7166 69.0499 42.1952 69.8354 46.0223 69.8354C50.9266 69.8354 51.0752 69.6653 50.2338 64.9869C49.5023 60.9111 50.1523 59.2605 54.3209 54.6202C57.048 51.5861 59.7138 47.1478 60.2438 44.7592C60.7752 42.3707 62.3923 39.4813 63.8366 38.3379C65.2809 37.1961 66.4623 35.4326 66.4623 34.4196C66.4623 33.3383 65.4966 33.6547 64.118 35.1877C61.9452 37.6064 61.5552 37.3122 58.7609 31.1549C57.1038 27.5021 53.7538 23.0829 51.3152 21.3337C48.2609 19.1423 46.378 16.0684 45.2609 11.4457C42.7909 1.22214 34.4952 -2.70094 26.0852 2.37823ZM42.2066 7.87881C44.2295 12.0865 43.9252 17.7318 41.4652 21.6422C38.4109 26.4971 27.3709 26.4971 24.3166 21.6422C20.1052 14.9473 21.9452 6.84993 28.3609 3.84759C33.4852 1.44795 40.0323 3.35462 42.2066 7.87881ZM30.2752 9.11123C28.4666 11.3359 28.318 12.4268 29.6252 13.8819C30.5566 14.9187 32.1552 15.7679 33.1766 15.7679C34.198 15.7679 35.0338 16.5662 35.0338 17.5442C35.0338 18.5365 33.7738 18.9531 32.1766 18.4872C29.098 17.5919 28.148 19.8055 31.1052 20.987C33.3338 21.8759 37.8909 19.3761 37.8909 17.2627C37.8909 16.3976 36.2452 14.9919 34.2338 14.1411C32.2223 13.2903 30.9566 11.9084 31.4223 11.0704C31.888 10.2323 33.3723 10.0065 34.7223 10.5695C36.8666 11.4632 36.9295 11.2548 35.2166 8.90927C32.818 5.62864 33.1152 5.61592 30.2752 9.11123ZM17.6209 21.4291C20.4966 20.4129 24.4338 24.1197 23.0766 26.5655C22.6509 27.332 27.0338 27.9601 32.818 27.9601C40.2752 27.9601 43.1452 27.4179 42.6895 26.0948C42.3366 25.0675 43.0695 23.2833 44.3209 22.1272C46.2366 20.3573 47.2023 20.5322 50.4566 23.2324C60.8138 31.8244 61.5895 43.3487 52.4938 53.4753C48.9038 57.4699 47.3695 60.4929 47.6638 62.9927C47.9895 65.7565 47.3938 66.655 45.2323 66.655C43.658 66.655 42.0109 65.4019 41.5738 63.8721C40.3923 59.7344 25.4066 59.6612 24.2295 63.7878C23.7809 65.3653 22.0895 66.655 20.4738 66.655C18.0009 66.655 17.6638 65.9314 18.3509 62.1086C19.0195 58.3874 18.5152 57.1725 15.5823 55.4249C13.6095 54.2497 10.9338 51.2871 9.63519 48.8397C8.33662 46.394 6.12805 44.3919 4.72519 44.3919C2.76519 44.3919 2.17662 43.107 2.17662 38.8261C2.17662 34.3544 2.72805 33.2603 4.98376 33.2603C8.29376 33.2603 10.748 28.8204 10.748 22.8333C10.748 19.2775 11.0966 18.8816 12.8223 20.475C13.9638 21.5293 16.1223 21.9586 17.6209 21.4291ZM13.6052 34.1493C13.6052 35.5121 14.258 36.1784 15.0566 35.6298C15.8552 35.0796 16.1395 33.9648 15.6866 33.1506C14.4623 30.945 13.6052 31.3553 13.6052 34.1493Z" fill="#2DD999"/>
</svg>
