<svg width="49" height="31" viewBox="0 0 49 31" fill="none" xmlns="http://www.w3.org/2000/svg">
<path d="M47.7006 13.89L32.4543 1.17146C30.7348 -0.262927 27.7948 0.752966 27.7948 2.7815L27.7948 28.2185C27.7948 30.247 30.7348 31.2629 32.4543 29.8285L47.7006 17.11C48.7665 16.2208 48.7665 14.7792 47.7006 13.89Z" fill="white"/>
<path d="M27.7948 10.9461C29.3022 10.9461 30.5242 11.9655 30.5242 13.2231L30.5242 17.7769C30.5242 19.0345 29.3022 20.0539 27.7948 20.0539L3.22948 20.0539C1.72203 20.0539 0.499999 19.0345 0.499999 17.7769L0.499999 13.2231C0.499999 11.9655 1.72203 10.9461 3.22948 10.9461L27.7948 10.9461Z" fill="white"/>
</svg>
