<svg width="398" height="379" viewBox="0 0 398 379" fill="none" xmlns="http://www.w3.org/2000/svg">
<path d="M84.8247 84.3639C70.9898 55.0802 83.5134 20.1257 112.797 6.29075C142.081 -7.54417 177.035 4.97948 190.87 34.2631L341.172 352.4C355.007 381.683 342.484 416.638 313.2 430.473C283.916 444.308 248.962 431.784 235.127 402.5L84.8247 84.3639Z" fill="#40B68A"/>
<path d="M83.9907 357.16C54.707 370.995 19.7525 358.471 5.91756 329.188C-7.91738 299.904 4.60628 264.95 33.8899 251.115L352.026 100.812C381.31 86.9775 416.265 99.5012 430.1 128.785C443.935 158.069 431.411 193.023 402.127 206.858L83.9907 357.16Z" fill="#40B68A"/>
</svg>
