<svg width="336" height="355" viewBox="0 0 336 355" fill="none" xmlns="http://www.w3.org/2000/svg">
<g style="mix-blend-mode:overlay">
<path d="M131.255 54.5353C128.519 27.602 148.135 3.55046 175.068 0.814608C202.001 -1.92124 226.053 17.6946 228.789 44.6279L258.511 337.23C261.247 364.163 241.631 388.215 214.697 390.95C187.764 393.686 163.713 374.07 160.977 347.137L131.255 54.5353Z" fill="#2DD999"/>
<path d="M54.5262 269.264C27.5929 272 3.54138 252.384 0.805524 225.451C-1.93033 198.517 17.6855 174.466 44.6188 171.73L337.221 142.008C364.154 139.272 388.205 158.888 390.941 185.821C393.677 212.754 374.061 236.806 347.128 239.542L54.5262 269.264Z" fill="#2DD999"/>
</g>
</svg>
